# xmcd
#
# Track frame offsets:
#	150
#	13999
#	32141
#	48053
#	60089
#	74316
#	90467
#	102867
#	117610
#	138931
#	154794
#	168701
#
# Disc length: 2405 seconds
#
# Revision: 0
# Processed by: cddbd v1.5.2PL0 Copyright (c) Steve Scherf et al.
# Submitted via: EasyCDDAExtractor 15.3.0.1
#
DISCID=9909630c
DTITLE=Clairy Browne and the Banging Rackettes - Baby Caught the Bus
DYEAR=2013
DGENRE=R&B - Soul
TTITLE0=Love Letter
TTITLE1=Vicious Circle
TTITLE2=Aeroplane
TTITLE3=Baby Caught the Bus
TTITLE4=I'll Be Fine
TTITLE5=Far Too Late
TTITLE6=She Plays Up To You
TTITLE7=Frankie
TTITLE8=Yellow Bird
TTITLE9=You Don't Owe Me Nothing
TTITLE10=Walk Of Shame
TTITLE11=Good Problems
EXTD=
EXTT0=
EXTT1=
EXTT2=
EXTT3=
EXTT4=
EXTT5=
EXTT6=
EXTT7=
EXTT8=
EXTT9=
EXTT10=
EXTT11=
PLAYORDER=
